<?xml version="1.0" standalone="no"?>
<!DOCTYPE svg PUBLIC "-//W3C//DTD SVG 20010904//EN"
 "http://www.w3.org/TR/2001/REC-SVG-20010904/DTD/svg10.dtd">
<svg version="1.0" xmlns="http://www.w3.org/2000/svg"
 width="300.000000pt" height="300.000000pt" viewBox="0 0 300.000000 300.000000"
 preserveAspectRatio="xMidYMid meet">
<metadata>
Created by potrace 1.11, written by Peter Selinger 2001-2013
</metadata>
<g transform="translate(0.000000,300.000000) scale(0.100000,-0.100000)"
fill="#000000" stroke="none">
<path d="M532 2912 c-97 -116 -172 -230 -238 -362 -53 -106 -127 -308 -139
-380 -3 -19 -10 -53 -15 -75 -20 -93 -24 -149 -24 -320 -1 -179 4 -239 23
-325 5 -25 12 -57 14 -71 10 -54 50 -187 79 -259 203 -514 635 -903 1172
-1055 62 -18 63 -18 116 -28 135 -26 206 -32 365 -31 167 0 259 10 383 39 12
3 31 7 43 10 118 25 330 114 459 191 126 75 122 57 40 176 -40 57 -78 109 -85
116 -11 12 -27 6 -96 -36 -119 -72 -306 -149 -409 -168 -14 -3 -43 -9 -65 -14
-106 -24 -308 -31 -452 -17 -99 10 -281 57 -383 100 -480 199 -812 617 -900
1132 -15 86 -20 307 -9 395 42 345 182 634 424 875 61 61 130 124 155 140 86
57 92 55 -157 55 l-228 -1 -73 -87z"/>
<path d="M1414 2511 c-193 -54 -335 -227 -349 -423 l-4 -58 147 0 148 0 1 35
c2 92 107 180 202 170 100 -10 175 -85 174 -173 -1 -65 -35 -129 -175 -329
-62 -89 -139 -200 -170 -245 -31 -46 -119 -173 -195 -283 l-139 -201 413 1
413 0 91 130 c50 72 94 137 99 145 7 14 -17 16 -217 15 -123 0 -227 3 -229 6
-4 7 35 64 251 376 120 173 145 232 150 351 5 134 -45 261 -140 357 -59 59
-154 116 -220 131 -64 15 -190 12 -251 -5z"/>
<path d="M2252 2385 c-56 -80 -96 -145 -89 -146 7 0 64 -1 127 -2 l114 -2 0
-612 c0 -421 3 -613 10 -616 6 -2 72 -3 146 -3 l135 1 0 763 0 762 -171 0
-171 0 -101 -145z"/>
</g>
</svg>
